<mxfile host="app.diagrams.net" modified="2021-06-04T09:11:27.659Z" agent="5.0 (Windows NT 10.0; Win64; x64) AppleWebKit/537.36 (KHTML, like Gecko) Chrome/90.0.4430.72 Safari/537.36" etag="JGffrOBd69XZc3_WO5pH" version="14.6.13" type="github">
  <diagram id="I5sImryGl6FJZrbQ-cl1" name="第 1 页">
    <mxGraphModel dx="981" dy="1695" grid="1" gridSize="10" guides="1" tooltips="1" connect="1" arrows="1" fold="1" page="1" pageScale="1" pageWidth="827" pageHeight="1169" math="0" shadow="0">
      <root>
        <mxCell id="0" />
        <mxCell id="1" parent="0" />
        <mxCell id="oFazUV7s3_X-ZEu1s_ES-1" value="V3LinkCells (final)" style="swimlane;fontStyle=1;align=center;verticalAlign=top;childLayout=stackLayout;horizontal=1;startSize=26;horizontalStack=0;resizeParent=1;resizeParentMax=0;resizeLast=0;collapsible=1;marginBottom=0;" vertex="1" parent="1">
          <mxGeometry x="70" y="-760" width="300" height="60" as="geometry" />
        </mxCell>
        <mxCell id="oFazUV7s3_X-ZEu1s_ES-3" value="" style="line;strokeWidth=1;fillColor=none;align=left;verticalAlign=middle;spacingTop=-1;spacingLeft=3;spacingRight=3;rotatable=0;labelPosition=right;points=[];portConstraint=eastwest;" vertex="1" parent="oFazUV7s3_X-ZEu1s_ES-1">
          <mxGeometry y="26" width="300" height="8" as="geometry" />
        </mxCell>
        <mxCell id="oFazUV7s3_X-ZEu1s_ES-4" value="+link(AstNetlist*, VInFilter*, V3ParseSym*): static void " style="text;strokeColor=none;fillColor=none;align=left;verticalAlign=top;spacingLeft=4;spacingRight=4;overflow=hidden;rotatable=0;points=[[0,0.5],[1,0.5]];portConstraint=eastwest;" vertex="1" parent="oFazUV7s3_X-ZEu1s_ES-1">
          <mxGeometry y="34" width="300" height="26" as="geometry" />
        </mxCell>
        <mxCell id="oFazUV7s3_X-ZEu1s_ES-5" value="visitor: LinkCellsVisitor" style="shape=umlLifeline;perimeter=lifelinePerimeter;whiteSpace=wrap;html=1;container=1;collapsible=0;recursiveResize=0;outlineConnect=0;" vertex="1" parent="1">
          <mxGeometry x="110" y="-580" width="100" height="562" as="geometry" />
        </mxCell>
        <mxCell id="oFazUV7s3_X-ZEu1s_ES-6" value="" style="html=1;points=[];perimeter=orthogonalPerimeter;" vertex="1" parent="oFazUV7s3_X-ZEu1s_ES-5">
          <mxGeometry x="45" y="70" width="10" height="50" as="geometry" />
        </mxCell>
        <mxCell id="oFazUV7s3_X-ZEu1s_ES-90" value="" style="html=1;points=[];perimeter=orthogonalPerimeter;" vertex="1" parent="oFazUV7s3_X-ZEu1s_ES-5">
          <mxGeometry x="45" y="130" width="10" height="60" as="geometry" />
        </mxCell>
        <mxCell id="oFazUV7s3_X-ZEu1s_ES-91" value="" style="html=1;points=[];perimeter=orthogonalPerimeter;" vertex="1" parent="oFazUV7s3_X-ZEu1s_ES-5">
          <mxGeometry x="45" y="282" width="10" height="60" as="geometry" />
        </mxCell>
        <mxCell id="oFazUV7s3_X-ZEu1s_ES-93" value="" style="html=1;points=[];perimeter=orthogonalPerimeter;" vertex="1" parent="oFazUV7s3_X-ZEu1s_ES-5">
          <mxGeometry x="45" y="453" width="10" height="28" as="geometry" />
        </mxCell>
        <mxCell id="oFazUV7s3_X-ZEu1s_ES-95" value="=0" style="text;html=1;strokeColor=none;fillColor=none;align=center;verticalAlign=middle;whiteSpace=wrap;rounded=0;dashed=1;dashPattern=1 1;" vertex="1" parent="oFazUV7s3_X-ZEu1s_ES-5">
          <mxGeometry x="55" y="457" width="25" height="20" as="geometry" />
        </mxCell>
        <mxCell id="oFazUV7s3_X-ZEu1s_ES-7" value="实例化&lt;br&gt;(v3Global.rootp(),&lt;br&gt;......)" style="edgeStyle=orthogonalEdgeStyle;rounded=0;orthogonalLoop=1;jettySize=auto;html=1;entryX=-0.1;entryY=0.119;entryDx=0;entryDy=0;entryPerimeter=0;exitX=0;exitY=0.5;exitDx=0;exitDy=0;" edge="1" parent="1" source="oFazUV7s3_X-ZEu1s_ES-4" target="oFazUV7s3_X-ZEu1s_ES-6">
          <mxGeometry relative="1" as="geometry">
            <mxPoint x="117.14285714285714" y="-652" as="targetPoint" />
          </mxGeometry>
        </mxCell>
        <mxCell id="oFazUV7s3_X-ZEu1s_ES-8" value="LinkCellsVisitor (final)" style="swimlane;fontStyle=1;align=center;verticalAlign=top;childLayout=stackLayout;horizontal=1;startSize=26;horizontalStack=0;resizeParent=1;resizeParentMax=0;resizeLast=0;collapsible=1;marginBottom=0;" vertex="1" parent="1">
          <mxGeometry x="100" y="-930" width="230" height="60" as="geometry" />
        </mxCell>
        <mxCell id="oFazUV7s3_X-ZEu1s_ES-9" value="" style="line;strokeWidth=1;fillColor=none;align=left;verticalAlign=middle;spacingTop=-1;spacingLeft=3;spacingRight=3;rotatable=0;labelPosition=right;points=[];portConstraint=eastwest;" vertex="1" parent="oFazUV7s3_X-ZEu1s_ES-8">
          <mxGeometry y="26" width="230" height="8" as="geometry" />
        </mxCell>
        <mxCell id="oFazUV7s3_X-ZEu1s_ES-10" value="+visit(AstNetlist* nodep): virtual void " style="text;strokeColor=none;fillColor=none;align=left;verticalAlign=top;spacingLeft=4;spacingRight=4;overflow=hidden;rotatable=0;points=[[0,0.5],[1,0.5]];portConstraint=eastwest;" vertex="1" parent="oFazUV7s3_X-ZEu1s_ES-8">
          <mxGeometry y="34" width="230" height="26" as="geometry" />
        </mxCell>
        <mxCell id="oFazUV7s3_X-ZEu1s_ES-14" value="AstNVisitor" style="swimlane;fontStyle=1;align=center;verticalAlign=top;childLayout=stackLayout;horizontal=1;startSize=26;horizontalStack=0;resizeParent=1;resizeParentMax=0;resizeLast=0;collapsible=1;marginBottom=0;" vertex="1" parent="1">
          <mxGeometry x="100" y="-1150" width="230" height="156" as="geometry" />
        </mxCell>
        <mxCell id="oFazUV7s3_X-ZEu1s_ES-15" value="+ field: type" style="text;strokeColor=none;fillColor=none;align=left;verticalAlign=top;spacingLeft=4;spacingRight=4;overflow=hidden;rotatable=0;points=[[0,0.5],[1,0.5]];portConstraint=eastwest;" vertex="1" parent="oFazUV7s3_X-ZEu1s_ES-14">
          <mxGeometry y="26" width="230" height="26" as="geometry" />
        </mxCell>
        <mxCell id="oFazUV7s3_X-ZEu1s_ES-16" value="" style="line;strokeWidth=1;fillColor=none;align=left;verticalAlign=middle;spacingTop=-1;spacingLeft=3;spacingRight=3;rotatable=0;labelPosition=right;points=[];portConstraint=eastwest;" vertex="1" parent="oFazUV7s3_X-ZEu1s_ES-14">
          <mxGeometry y="52" width="230" height="8" as="geometry" />
        </mxCell>
        <mxCell id="oFazUV7s3_X-ZEu1s_ES-17" value="+ iterate(AstNode*): void" style="text;strokeColor=none;fillColor=none;align=left;verticalAlign=top;spacingLeft=4;spacingRight=4;overflow=hidden;rotatable=0;points=[[0,0.5],[1,0.5]];portConstraint=eastwest;" vertex="1" parent="oFazUV7s3_X-ZEu1s_ES-14">
          <mxGeometry y="60" width="230" height="26" as="geometry" />
        </mxCell>
        <mxCell id="oFazUV7s3_X-ZEu1s_ES-57" value="+ iterateChildren(AstNode*): void" style="text;strokeColor=none;fillColor=none;align=left;verticalAlign=top;spacingLeft=4;spacingRight=4;overflow=hidden;rotatable=0;points=[[0,0.5],[1,0.5]];portConstraint=eastwest;" vertex="1" parent="oFazUV7s3_X-ZEu1s_ES-14">
          <mxGeometry y="86" width="230" height="26" as="geometry" />
        </mxCell>
        <mxCell id="oFazUV7s3_X-ZEu1s_ES-18" value="+ visit(AstXXX* nodep): virtual void&#xa;    astgen脚本生成V3Ast_gen_visitor.h" style="text;strokeColor=none;fillColor=none;align=left;verticalAlign=top;spacingLeft=4;spacingRight=4;overflow=hidden;rotatable=0;points=[[0,0.5],[1,0.5]];portConstraint=eastwest;fontStyle=2" vertex="1" parent="oFazUV7s3_X-ZEu1s_ES-14">
          <mxGeometry y="112" width="230" height="44" as="geometry" />
        </mxCell>
        <mxCell id="oFazUV7s3_X-ZEu1s_ES-19" value="Extends" style="endArrow=block;endSize=16;endFill=0;html=1;exitX=0.5;exitY=0;exitDx=0;exitDy=0;edgeStyle=orthogonalEdgeStyle;" edge="1" parent="1" source="oFazUV7s3_X-ZEu1s_ES-8" target="oFazUV7s3_X-ZEu1s_ES-14">
          <mxGeometry width="160" relative="1" as="geometry">
            <mxPoint x="140" y="-720" as="sourcePoint" />
            <mxPoint x="270" y="-840" as="targetPoint" />
          </mxGeometry>
        </mxCell>
        <mxCell id="oFazUV7s3_X-ZEu1s_ES-29" value="v3Global.rootp()&lt;br&gt;:AstNetlist*" style="shape=umlLifeline;perimeter=lifelinePerimeter;whiteSpace=wrap;html=1;container=1;collapsible=0;recursiveResize=0;outlineConnect=0;" vertex="1" parent="1">
          <mxGeometry x="640" y="-580" width="100" height="562" as="geometry" />
        </mxCell>
        <mxCell id="oFazUV7s3_X-ZEu1s_ES-30" value="" style="html=1;points=[];perimeter=orthogonalPerimeter;" vertex="1" parent="oFazUV7s3_X-ZEu1s_ES-29">
          <mxGeometry x="45" y="100" width="10" height="30" as="geometry" />
        </mxCell>
        <mxCell id="oFazUV7s3_X-ZEu1s_ES-31" value=":AstNVisitor" style="shape=umlLifeline;perimeter=lifelinePerimeter;whiteSpace=wrap;html=1;container=1;collapsible=0;recursiveResize=0;outlineConnect=0;dashed=1;" vertex="1" parent="1">
          <mxGeometry x="270" y="-580" width="100" height="562" as="geometry" />
        </mxCell>
        <mxCell id="oFazUV7s3_X-ZEu1s_ES-32" value="" style="html=1;points=[];perimeter=orthogonalPerimeter;dashed=1;" vertex="1" parent="oFazUV7s3_X-ZEu1s_ES-31">
          <mxGeometry x="45" y="80" width="10" height="35" as="geometry" />
        </mxCell>
        <mxCell id="oFazUV7s3_X-ZEu1s_ES-59" value="" style="html=1;points=[];perimeter=orthogonalPerimeter;dashed=1;" vertex="1" parent="oFazUV7s3_X-ZEu1s_ES-31">
          <mxGeometry x="45" y="162" width="10" height="28" as="geometry" />
        </mxCell>
        <mxCell id="oFazUV7s3_X-ZEu1s_ES-97" value="" style="html=1;points=[];perimeter=orthogonalPerimeter;dashed=1;" vertex="1" parent="oFazUV7s3_X-ZEu1s_ES-31">
          <mxGeometry x="45" y="312" width="10" height="28" as="geometry" />
        </mxCell>
        <mxCell id="oFazUV7s3_X-ZEu1s_ES-33" value="nodep&lt;br&gt;:AstNode" style="shape=umlLifeline;perimeter=lifelinePerimeter;whiteSpace=wrap;html=1;container=1;collapsible=0;recursiveResize=0;outlineConnect=0;" vertex="1" parent="1">
          <mxGeometry x="440" y="-580" width="100" height="562" as="geometry" />
        </mxCell>
        <mxCell id="oFazUV7s3_X-ZEu1s_ES-34" value="" style="html=1;points=[];perimeter=orthogonalPerimeter;dashed=1;dashPattern=1 1;" vertex="1" parent="oFazUV7s3_X-ZEu1s_ES-33">
          <mxGeometry x="45" y="90" width="10" height="30" as="geometry" />
        </mxCell>
        <mxCell id="oFazUV7s3_X-ZEu1s_ES-61" value="" style="html=1;points=[];perimeter=orthogonalPerimeter;fillColor=#cdeb8b;strokeColor=#36393d;" vertex="1" parent="oFazUV7s3_X-ZEu1s_ES-33">
          <mxGeometry x="45" y="170" width="10" height="30" as="geometry" />
        </mxCell>
        <mxCell id="oFazUV7s3_X-ZEu1s_ES-63" value="" style="html=1;points=[];perimeter=orthogonalPerimeter;" vertex="1" parent="oFazUV7s3_X-ZEu1s_ES-33">
          <mxGeometry x="45" y="222" width="10" height="33" as="geometry" />
        </mxCell>
        <mxCell id="oFazUV7s3_X-ZEu1s_ES-64" value="m_op1p-&amp;gt;iterateAndNext(v)" style="edgeStyle=orthogonalEdgeStyle;html=1;align=left;spacingLeft=2;endArrow=block;rounded=0;dashed=1;exitX=0.967;exitY=0.378;exitDx=0;exitDy=0;exitPerimeter=0;entryX=0.933;entryY=0.035;entryDx=0;entryDy=0;entryPerimeter=0;strokeColor=#FF00FF;fontColor=#FF00FF;" edge="1" target="oFazUV7s3_X-ZEu1s_ES-63" parent="oFazUV7s3_X-ZEu1s_ES-33" source="oFazUV7s3_X-ZEu1s_ES-61">
          <mxGeometry relative="1" as="geometry">
            <mxPoint x="45" y="202" as="sourcePoint" />
            <Array as="points">
              <mxPoint x="61" y="181" />
              <mxPoint x="61" y="223" />
            </Array>
          </mxGeometry>
        </mxCell>
        <mxCell id="oFazUV7s3_X-ZEu1s_ES-99" value="" style="html=1;points=[];perimeter=orthogonalPerimeter;" vertex="1" parent="oFazUV7s3_X-ZEu1s_ES-33">
          <mxGeometry x="45" y="396" width="10" height="30" as="geometry" />
        </mxCell>
        <mxCell id="oFazUV7s3_X-ZEu1s_ES-100" value="m_op2p-&amp;gt;iterateAndNext(v)" style="edgeStyle=orthogonalEdgeStyle;html=1;align=left;spacingLeft=2;endArrow=block;rounded=0;dashed=1;exitX=1.043;exitY=0.562;exitDx=0;exitDy=0;exitPerimeter=0;entryX=1.067;entryY=0.035;entryDx=0;entryDy=0;entryPerimeter=0;strokeColor=#0000FF;fontColor=#0000FF;" edge="1" parent="oFazUV7s3_X-ZEu1s_ES-33" source="oFazUV7s3_X-ZEu1s_ES-61" target="oFazUV7s3_X-ZEu1s_ES-99">
          <mxGeometry relative="1" as="geometry">
            <mxPoint x="55.330000000000155" y="405.48" as="sourcePoint" />
            <Array as="points">
              <mxPoint x="71" y="187" />
              <mxPoint x="71" y="397" />
            </Array>
            <mxPoint x="55" y="439.0044827586207" as="targetPoint" />
          </mxGeometry>
        </mxCell>
        <mxCell id="oFazUV7s3_X-ZEu1s_ES-102" value="" style="html=1;points=[];perimeter=orthogonalPerimeter;" vertex="1" parent="oFazUV7s3_X-ZEu1s_ES-33">
          <mxGeometry x="45" y="474" width="10" height="30" as="geometry" />
        </mxCell>
        <mxCell id="oFazUV7s3_X-ZEu1s_ES-101" value="m_op3p-&amp;gt;iterateAndNext(v)" style="edgeStyle=orthogonalEdgeStyle;html=1;align=left;spacingLeft=2;endArrow=block;rounded=0;dashed=1;exitX=1.058;exitY=0.766;exitDx=0;exitDy=0;exitPerimeter=0;entryX=1.043;entryY=0.124;entryDx=0;entryDy=0;entryPerimeter=0;fontColor=#EA6B66;strokeColor=#EA6B66;" edge="1" parent="oFazUV7s3_X-ZEu1s_ES-33" source="oFazUV7s3_X-ZEu1s_ES-61" target="oFazUV7s3_X-ZEu1s_ES-102">
          <mxGeometry relative="1" as="geometry">
            <mxPoint x="65.42999999999995" y="196.8599999999999" as="sourcePoint" />
            <Array as="points">
              <mxPoint x="81" y="193" />
              <mxPoint x="81" y="478" />
            </Array>
            <mxPoint x="65.67000000000007" y="451.04999999999995" as="targetPoint" />
          </mxGeometry>
        </mxCell>
        <mxCell id="oFazUV7s3_X-ZEu1s_ES-103" value="" style="html=1;points=[];perimeter=orthogonalPerimeter;" vertex="1" parent="oFazUV7s3_X-ZEu1s_ES-33">
          <mxGeometry x="45" y="522" width="10" height="30" as="geometry" />
        </mxCell>
        <mxCell id="oFazUV7s3_X-ZEu1s_ES-104" value="m_op4p-&amp;gt;iterateAndNext(v)" style="edgeStyle=orthogonalEdgeStyle;html=1;align=left;spacingLeft=2;endArrow=block;rounded=0;dashed=1;exitX=1.017;exitY=0.95;exitDx=0;exitDy=0;exitPerimeter=0;entryX=0.906;entryY=0.078;entryDx=0;entryDy=0;entryPerimeter=0;fontColor=#009900;strokeColor=#009900;" edge="1" parent="oFazUV7s3_X-ZEu1s_ES-33" source="oFazUV7s3_X-ZEu1s_ES-61" target="oFazUV7s3_X-ZEu1s_ES-103">
          <mxGeometry relative="1" as="geometry">
            <mxPoint x="65.57999999999993" y="202.9799999999998" as="sourcePoint" />
            <Array as="points">
              <mxPoint x="91" y="199" />
              <mxPoint x="91" y="524" />
            </Array>
            <mxPoint x="65.42999999999984" y="535.72" as="targetPoint" />
          </mxGeometry>
        </mxCell>
        <mxCell id="oFazUV7s3_X-ZEu1s_ES-105" value="" style="html=1;points=[];perimeter=orthogonalPerimeter;fillColor=#cdeb8b;strokeColor=#36393d;" vertex="1" parent="oFazUV7s3_X-ZEu1s_ES-33">
          <mxGeometry x="45" y="322" width="10" height="30" as="geometry" />
        </mxCell>
        <mxCell id="oFazUV7s3_X-ZEu1s_ES-36" value="iterate(nodep)" style="html=1;verticalAlign=bottom;endArrow=block;dashed=1;exitX=1.12;exitY=0.2;exitDx=0;exitDy=0;exitPerimeter=0;" edge="1" target="oFazUV7s3_X-ZEu1s_ES-31" parent="1" source="oFazUV7s3_X-ZEu1s_ES-6">
          <mxGeometry relative="1" as="geometry">
            <mxPoint x="243" y="-477.0799999999999" as="sourcePoint" />
            <mxPoint x="429.05999999999995" y="-477.0799999999999" as="targetPoint" />
          </mxGeometry>
        </mxCell>
        <mxCell id="oFazUV7s3_X-ZEu1s_ES-37" value="v.visit(AstNetList* this)" style="html=1;verticalAlign=bottom;endArrow=open;dashed=1;endSize=8;exitX=-0.067;exitY=0.996;exitDx=0;exitDy=0;exitPerimeter=0;" edge="1" source="oFazUV7s3_X-ZEu1s_ES-30" parent="1" target="oFazUV7s3_X-ZEu1s_ES-5">
          <mxGeometry relative="1" as="geometry">
            <mxPoint x="303" y="-450" as="targetPoint" />
            <mxPoint x="726" y="-450" as="sourcePoint" />
          </mxGeometry>
        </mxCell>
        <mxCell id="oFazUV7s3_X-ZEu1s_ES-38" value="nodep-&amp;gt;accept(*this)" style="html=1;verticalAlign=bottom;endArrow=block;dashed=1;exitX=1.02;exitY=0.297;exitDx=0;exitDy=0;exitPerimeter=0;" edge="1" parent="1" source="oFazUV7s3_X-ZEu1s_ES-32" target="oFazUV7s3_X-ZEu1s_ES-33">
          <mxGeometry relative="1" as="geometry">
            <mxPoint x="254.05999999999995" y="-476.55999999999995" as="sourcePoint" />
            <mxPoint x="553" y="-477" as="targetPoint" />
          </mxGeometry>
        </mxCell>
        <mxCell id="oFazUV7s3_X-ZEu1s_ES-39" value="nodep-&amp;gt;accept(v)" style="html=1;verticalAlign=bottom;endArrow=block;dashed=1;exitX=1.18;exitY=0.333;exitDx=0;exitDy=0;exitPerimeter=0;" edge="1" parent="1" source="oFazUV7s3_X-ZEu1s_ES-34" target="oFazUV7s3_X-ZEu1s_ES-29">
          <mxGeometry relative="1" as="geometry">
            <mxPoint x="583" y="-467" as="sourcePoint" />
            <mxPoint x="693" y="-467" as="targetPoint" />
          </mxGeometry>
        </mxCell>
        <mxCell id="oFazUV7s3_X-ZEu1s_ES-40" value="AstNetlist (final)" style="swimlane;fontStyle=1;align=center;verticalAlign=top;childLayout=stackLayout;horizontal=1;startSize=26;horizontalStack=0;resizeParent=1;resizeParentMax=0;resizeLast=0;collapsible=1;marginBottom=0;" vertex="1" parent="1">
          <mxGeometry x="470" y="-872" width="180" height="188" as="geometry" />
        </mxCell>
        <mxCell id="oFazUV7s3_X-ZEu1s_ES-41" value="+ field: type" style="text;strokeColor=none;fillColor=none;align=left;verticalAlign=top;spacingLeft=4;spacingRight=4;overflow=hidden;rotatable=0;points=[[0,0.5],[1,0.5]];portConstraint=eastwest;" vertex="1" parent="oFazUV7s3_X-ZEu1s_ES-40">
          <mxGeometry y="26" width="180" height="26" as="geometry" />
        </mxCell>
        <mxCell id="oFazUV7s3_X-ZEu1s_ES-42" value="" style="line;strokeWidth=1;fillColor=none;align=left;verticalAlign=middle;spacingTop=-1;spacingLeft=3;spacingRight=3;rotatable=0;labelPosition=right;points=[];portConstraint=eastwest;" vertex="1" parent="oFazUV7s3_X-ZEu1s_ES-40">
          <mxGeometry y="52" width="180" height="8" as="geometry" />
        </mxCell>
        <mxCell id="oFazUV7s3_X-ZEu1s_ES-43" value="+ accept(AstNVisitor &amp;): void" style="text;strokeColor=none;fillColor=none;align=left;verticalAlign=top;spacingLeft=4;spacingRight=4;overflow=hidden;rotatable=0;points=[[0,0.5],[1,0.5]];portConstraint=eastwest;" vertex="1" parent="oFazUV7s3_X-ZEu1s_ES-40">
          <mxGeometry y="60" width="180" height="26" as="geometry" />
        </mxCell>
        <mxCell id="oFazUV7s3_X-ZEu1s_ES-44" value="+ modulesp(): AstNodeModule*&#xa;    // op1 = List of modules" style="text;strokeColor=none;fillColor=none;align=left;verticalAlign=top;spacingLeft=4;spacingRight=4;overflow=hidden;rotatable=0;points=[[0,0.5],[1,0.5]];portConstraint=eastwest;" vertex="1" parent="oFazUV7s3_X-ZEu1s_ES-40">
          <mxGeometry y="86" width="180" height="34" as="geometry" />
        </mxCell>
        <mxCell id="oFazUV7s3_X-ZEu1s_ES-45" value="+ filesp(): AstNodeFile*&#xa;    // op2 = List of files" style="text;strokeColor=none;fillColor=none;align=left;verticalAlign=top;spacingLeft=4;spacingRight=4;overflow=hidden;rotatable=0;points=[[0,0.5],[1,0.5]];portConstraint=eastwest;" vertex="1" parent="oFazUV7s3_X-ZEu1s_ES-40">
          <mxGeometry y="120" width="180" height="34" as="geometry" />
        </mxCell>
        <mxCell id="oFazUV7s3_X-ZEu1s_ES-46" value="+ miscsp(): AstNode*&#xa;    // op3 = List of dtypes etc" style="text;strokeColor=none;fillColor=none;align=left;verticalAlign=top;spacingLeft=4;spacingRight=4;overflow=hidden;rotatable=0;points=[[0,0.5],[1,0.5]];portConstraint=eastwest;" vertex="1" parent="oFazUV7s3_X-ZEu1s_ES-40">
          <mxGeometry y="154" width="180" height="34" as="geometry" />
        </mxCell>
        <mxCell id="oFazUV7s3_X-ZEu1s_ES-47" value="AstNode" style="swimlane;fontStyle=1;align=center;verticalAlign=top;childLayout=stackLayout;horizontal=1;startSize=26;horizontalStack=0;resizeParent=1;resizeParentMax=0;resizeLast=0;collapsible=1;marginBottom=0;" vertex="1" parent="1">
          <mxGeometry x="650" y="-1150" width="230" height="216" as="geometry" />
        </mxCell>
        <mxCell id="oFazUV7s3_X-ZEu1s_ES-48" value="" style="line;strokeWidth=1;fillColor=none;align=left;verticalAlign=middle;spacingTop=-1;spacingLeft=3;spacingRight=3;rotatable=0;labelPosition=right;points=[];portConstraint=eastwest;" vertex="1" parent="oFazUV7s3_X-ZEu1s_ES-47">
          <mxGeometry y="26" width="230" height="8" as="geometry" />
        </mxCell>
        <mxCell id="oFazUV7s3_X-ZEu1s_ES-49" value="+ nextp(): AstNode*" style="text;strokeColor=none;fillColor=none;align=left;verticalAlign=top;spacingLeft=4;spacingRight=4;overflow=hidden;rotatable=0;points=[[0,0.5],[1,0.5]];portConstraint=eastwest;" vertex="1" parent="oFazUV7s3_X-ZEu1s_ES-47">
          <mxGeometry y="34" width="230" height="26" as="geometry" />
        </mxCell>
        <mxCell id="oFazUV7s3_X-ZEu1s_ES-50" value="+ backp(): AstNode*" style="text;strokeColor=none;fillColor=none;align=left;verticalAlign=top;spacingLeft=4;spacingRight=4;overflow=hidden;rotatable=0;points=[[0,0.5],[1,0.5]];portConstraint=eastwest;" vertex="1" parent="oFazUV7s3_X-ZEu1s_ES-47">
          <mxGeometry y="60" width="230" height="26" as="geometry" />
        </mxCell>
        <mxCell id="oFazUV7s3_X-ZEu1s_ES-51" value="+ op1p(): AstNode*" style="text;strokeColor=none;fillColor=none;align=left;verticalAlign=top;spacingLeft=4;spacingRight=4;overflow=hidden;rotatable=0;points=[[0,0.5],[1,0.5]];portConstraint=eastwest;" vertex="1" parent="oFazUV7s3_X-ZEu1s_ES-47">
          <mxGeometry y="86" width="230" height="26" as="geometry" />
        </mxCell>
        <mxCell id="oFazUV7s3_X-ZEu1s_ES-52" value="+ op2p(): AstNode*" style="text;strokeColor=none;fillColor=none;align=left;verticalAlign=top;spacingLeft=4;spacingRight=4;overflow=hidden;rotatable=0;points=[[0,0.5],[1,0.5]];portConstraint=eastwest;" vertex="1" parent="oFazUV7s3_X-ZEu1s_ES-47">
          <mxGeometry y="112" width="230" height="26" as="geometry" />
        </mxCell>
        <mxCell id="oFazUV7s3_X-ZEu1s_ES-53" value="+ op3p(): AstNode*" style="text;strokeColor=none;fillColor=none;align=left;verticalAlign=top;spacingLeft=4;spacingRight=4;overflow=hidden;rotatable=0;points=[[0,0.5],[1,0.5]];portConstraint=eastwest;" vertex="1" parent="oFazUV7s3_X-ZEu1s_ES-47">
          <mxGeometry y="138" width="230" height="26" as="geometry" />
        </mxCell>
        <mxCell id="oFazUV7s3_X-ZEu1s_ES-54" value="+ op4p(): AstNode*" style="text;strokeColor=none;fillColor=none;align=left;verticalAlign=top;spacingLeft=4;spacingRight=4;overflow=hidden;rotatable=0;points=[[0,0.5],[1,0.5]];portConstraint=eastwest;" vertex="1" parent="oFazUV7s3_X-ZEu1s_ES-47">
          <mxGeometry y="164" width="230" height="26" as="geometry" />
        </mxCell>
        <mxCell id="oFazUV7s3_X-ZEu1s_ES-55" value="+ accept(AstNVisitor&amp; v): virtual void =0" style="text;strokeColor=none;fillColor=none;align=left;verticalAlign=top;spacingLeft=4;spacingRight=4;overflow=hidden;rotatable=0;points=[[0,0.5],[1,0.5]];portConstraint=eastwest;fontStyle=2" vertex="1" parent="oFazUV7s3_X-ZEu1s_ES-47">
          <mxGeometry y="190" width="230" height="26" as="geometry" />
        </mxCell>
        <mxCell id="oFazUV7s3_X-ZEu1s_ES-56" value="Extends" style="endArrow=block;endSize=16;endFill=0;html=1;edgeStyle=orthogonalEdgeStyle;" edge="1" parent="1" source="oFazUV7s3_X-ZEu1s_ES-40" target="oFazUV7s3_X-ZEu1s_ES-47">
          <mxGeometry width="160" relative="1" as="geometry">
            <mxPoint x="589" y="-620" as="sourcePoint" />
            <mxPoint x="709" y="-942" as="targetPoint" />
          </mxGeometry>
        </mxCell>
        <mxCell id="oFazUV7s3_X-ZEu1s_ES-58" value="iterateChildren(nodep)" style="html=1;verticalAlign=bottom;endArrow=block;dashed=1;exitX=1.133;exitY=0.524;exitDx=0;exitDy=0;exitPerimeter=0;" edge="1" parent="1" source="oFazUV7s3_X-ZEu1s_ES-90" target="oFazUV7s3_X-ZEu1s_ES-31">
          <mxGeometry relative="1" as="geometry">
            <mxPoint x="273" y="-419" as="sourcePoint" />
            <mxPoint x="373.67" y="-430.2900000000002" as="targetPoint" />
          </mxGeometry>
        </mxCell>
        <mxCell id="oFazUV7s3_X-ZEu1s_ES-60" value="nodep-&amp;gt;iterateChildren(*this)" style="html=1;verticalAlign=bottom;endArrow=block;dashed=1;exitX=1.043;exitY=0.32;exitDx=0;exitDy=0;exitPerimeter=0;" edge="1" parent="1" source="oFazUV7s3_X-ZEu1s_ES-59" target="oFazUV7s3_X-ZEu1s_ES-33">
          <mxGeometry relative="1" as="geometry">
            <mxPoint x="388" y="-409" as="sourcePoint" />
            <mxPoint x="526.33" y="-410" as="targetPoint" />
          </mxGeometry>
        </mxCell>
        <mxCell id="oFazUV7s3_X-ZEu1s_ES-67" value="m_op1p&lt;br&gt;:AstNodeModule*" style="shape=umlLifeline;perimeter=lifelinePerimeter;whiteSpace=wrap;html=1;container=1;collapsible=0;recursiveResize=0;outlineConnect=0;" vertex="1" parent="1">
          <mxGeometry x="768" y="-580" width="100" height="562" as="geometry" />
        </mxCell>
        <mxCell id="oFazUV7s3_X-ZEu1s_ES-68" value="" style="html=1;points=[];perimeter=orthogonalPerimeter;" vertex="1" parent="oFazUV7s3_X-ZEu1s_ES-67">
          <mxGeometry x="45" y="250" width="10" height="32" as="geometry" />
        </mxCell>
        <mxCell id="oFazUV7s3_X-ZEu1s_ES-69" value="m_op2p&lt;br&gt;:AstNodeFile*" style="shape=umlLifeline;perimeter=lifelinePerimeter;whiteSpace=wrap;html=1;container=1;collapsible=0;recursiveResize=0;outlineConnect=0;" vertex="1" parent="1">
          <mxGeometry x="900" y="-580" width="100" height="562" as="geometry" />
        </mxCell>
        <mxCell id="oFazUV7s3_X-ZEu1s_ES-70" value="" style="html=1;points=[];perimeter=orthogonalPerimeter;dashed=1;dashPattern=1 1;" vertex="1" parent="oFazUV7s3_X-ZEu1s_ES-69">
          <mxGeometry x="45" y="420" width="10" height="40" as="geometry" />
        </mxCell>
        <mxCell id="oFazUV7s3_X-ZEu1s_ES-71" value="AstNodeFile" style="swimlane;fontStyle=1;align=center;verticalAlign=top;childLayout=stackLayout;horizontal=1;startSize=26;horizontalStack=0;resizeParent=1;resizeParentMax=0;resizeLast=0;collapsible=1;marginBottom=0;" vertex="1" parent="1">
          <mxGeometry x="850" y="-872" width="200" height="86" as="geometry" />
        </mxCell>
        <mxCell id="oFazUV7s3_X-ZEu1s_ES-72" value="- m_name: string" style="text;strokeColor=none;fillColor=none;align=left;verticalAlign=top;spacingLeft=4;spacingRight=4;overflow=hidden;rotatable=0;points=[[0,0.5],[1,0.5]];portConstraint=eastwest;" vertex="1" parent="oFazUV7s3_X-ZEu1s_ES-71">
          <mxGeometry y="26" width="200" height="26" as="geometry" />
        </mxCell>
        <mxCell id="oFazUV7s3_X-ZEu1s_ES-73" value="" style="line;strokeWidth=1;fillColor=none;align=left;verticalAlign=middle;spacingTop=-1;spacingLeft=3;spacingRight=3;rotatable=0;labelPosition=right;points=[];portConstraint=eastwest;" vertex="1" parent="oFazUV7s3_X-ZEu1s_ES-71">
          <mxGeometry y="52" width="200" height="8" as="geometry" />
        </mxCell>
        <mxCell id="oFazUV7s3_X-ZEu1s_ES-74" value="+ dump(std::ostream &amp;): virtual void" style="text;strokeColor=none;fillColor=none;align=left;verticalAlign=top;spacingLeft=4;spacingRight=4;overflow=hidden;rotatable=0;points=[[0,0.5],[1,0.5]];portConstraint=eastwest;" vertex="1" parent="oFazUV7s3_X-ZEu1s_ES-71">
          <mxGeometry y="60" width="200" height="26" as="geometry" />
        </mxCell>
        <mxCell id="oFazUV7s3_X-ZEu1s_ES-78" value="AstVFile (final)" style="swimlane;fontStyle=1;align=center;verticalAlign=top;childLayout=stackLayout;horizontal=1;startSize=26;horizontalStack=0;resizeParent=1;resizeParentMax=0;resizeLast=0;collapsible=1;marginBottom=0;" vertex="1" parent="1">
          <mxGeometry x="720" y="-720" width="180" height="60" as="geometry" />
        </mxCell>
        <mxCell id="oFazUV7s3_X-ZEu1s_ES-80" value="" style="line;strokeWidth=1;fillColor=none;align=left;verticalAlign=middle;spacingTop=-1;spacingLeft=3;spacingRight=3;rotatable=0;labelPosition=right;points=[];portConstraint=eastwest;" vertex="1" parent="oFazUV7s3_X-ZEu1s_ES-78">
          <mxGeometry y="26" width="180" height="8" as="geometry" />
        </mxCell>
        <mxCell id="oFazUV7s3_X-ZEu1s_ES-81" value="+ accept(AstNVisitor &amp;): void" style="text;strokeColor=none;fillColor=none;align=left;verticalAlign=top;spacingLeft=4;spacingRight=4;overflow=hidden;rotatable=0;points=[[0,0.5],[1,0.5]];portConstraint=eastwest;" vertex="1" parent="oFazUV7s3_X-ZEu1s_ES-78">
          <mxGeometry y="34" width="180" height="26" as="geometry" />
        </mxCell>
        <mxCell id="oFazUV7s3_X-ZEu1s_ES-82" value="AstCFile (final)" style="swimlane;fontStyle=1;align=center;verticalAlign=top;childLayout=stackLayout;horizontal=1;startSize=26;horizontalStack=0;resizeParent=1;resizeParentMax=0;resizeLast=0;collapsible=1;marginBottom=0;" vertex="1" parent="1">
          <mxGeometry x="990" y="-720" width="180" height="60" as="geometry" />
        </mxCell>
        <mxCell id="oFazUV7s3_X-ZEu1s_ES-84" value="" style="line;strokeWidth=1;fillColor=none;align=left;verticalAlign=middle;spacingTop=-1;spacingLeft=3;spacingRight=3;rotatable=0;labelPosition=right;points=[];portConstraint=eastwest;" vertex="1" parent="oFazUV7s3_X-ZEu1s_ES-82">
          <mxGeometry y="26" width="180" height="8" as="geometry" />
        </mxCell>
        <mxCell id="oFazUV7s3_X-ZEu1s_ES-85" value="+ accept(AstNVisitor &amp;): void" style="text;strokeColor=none;fillColor=none;align=left;verticalAlign=top;spacingLeft=4;spacingRight=4;overflow=hidden;rotatable=0;points=[[0,0.5],[1,0.5]];portConstraint=eastwest;" vertex="1" parent="oFazUV7s3_X-ZEu1s_ES-82">
          <mxGeometry y="34" width="180" height="26" as="geometry" />
        </mxCell>
        <mxCell id="oFazUV7s3_X-ZEu1s_ES-86" value="Extends" style="endArrow=block;endSize=16;endFill=0;html=1;edgeStyle=orthogonalEdgeStyle;exitX=0.5;exitY=0;exitDx=0;exitDy=0;" edge="1" parent="1" source="oFazUV7s3_X-ZEu1s_ES-71" target="oFazUV7s3_X-ZEu1s_ES-47">
          <mxGeometry width="160" relative="1" as="geometry">
            <mxPoint x="570" y="-820" as="sourcePoint" />
            <mxPoint x="659.0000000000002" y="-904" as="targetPoint" />
          </mxGeometry>
        </mxCell>
        <mxCell id="oFazUV7s3_X-ZEu1s_ES-87" value="Extends" style="endArrow=block;endSize=16;endFill=0;html=1;edgeStyle=orthogonalEdgeStyle;exitX=0.5;exitY=0;exitDx=0;exitDy=0;" edge="1" parent="1" source="oFazUV7s3_X-ZEu1s_ES-82" target="oFazUV7s3_X-ZEu1s_ES-71">
          <mxGeometry width="160" relative="1" as="geometry">
            <mxPoint x="970" y="-820" as="sourcePoint" />
            <mxPoint x="659.0000000000002" y="-904" as="targetPoint" />
          </mxGeometry>
        </mxCell>
        <mxCell id="oFazUV7s3_X-ZEu1s_ES-88" value="Extends" style="endArrow=block;endSize=16;endFill=0;html=1;edgeStyle=orthogonalEdgeStyle;" edge="1" parent="1" source="oFazUV7s3_X-ZEu1s_ES-78" target="oFazUV7s3_X-ZEu1s_ES-71">
          <mxGeometry width="160" relative="1" as="geometry">
            <mxPoint x="1090" y="-660" as="sourcePoint" />
            <mxPoint x="970" y="-734" as="targetPoint" />
          </mxGeometry>
        </mxCell>
        <mxCell id="oFazUV7s3_X-ZEu1s_ES-89" value="nodep-&amp;gt;accept(v)" style="html=1;verticalAlign=bottom;endArrow=block;dashed=1;exitX=1.017;exitY=0.785;exitDx=0;exitDy=0;exitPerimeter=0;" edge="1" parent="1" source="oFazUV7s3_X-ZEu1s_ES-99" target="oFazUV7s3_X-ZEu1s_ES-69">
          <mxGeometry relative="1" as="geometry">
            <mxPoint x="559.3799999999999" y="-317.60400000000004" as="sourcePoint" />
            <mxPoint x="878.4300000000001" y="-317.5999999999999" as="targetPoint" />
          </mxGeometry>
        </mxCell>
        <mxCell id="oFazUV7s3_X-ZEu1s_ES-92" value="v.visit(AstNodeModule* this)" style="html=1;verticalAlign=bottom;endArrow=open;dashed=1;endSize=8;entryX=0.572;entryY=0.009;entryDx=0;entryDy=0;entryPerimeter=0;" edge="1" parent="1" source="oFazUV7s3_X-ZEu1s_ES-67" target="oFazUV7s3_X-ZEu1s_ES-91">
          <mxGeometry relative="1" as="geometry">
            <mxPoint x="164" y="-298" as="targetPoint" />
            <mxPoint x="723.0499999999998" y="-297.9200000000001" as="sourcePoint" />
          </mxGeometry>
        </mxCell>
        <mxCell id="oFazUV7s3_X-ZEu1s_ES-94" value="v.visit(AstNodeFile* this)" style="html=1;verticalAlign=bottom;endArrow=open;dashed=1;endSize=8;exitX=0.038;exitY=0.798;exitDx=0;exitDy=0;exitPerimeter=0;" edge="1" parent="1" source="oFazUV7s3_X-ZEu1s_ES-70" target="oFazUV7s3_X-ZEu1s_ES-5">
          <mxGeometry relative="1" as="geometry">
            <mxPoint x="164" y="-228" as="targetPoint" />
            <mxPoint x="1013.05" y="-227.9999999999999" as="sourcePoint" />
          </mxGeometry>
        </mxCell>
        <mxCell id="oFazUV7s3_X-ZEu1s_ES-98" value="iterateChildren(nodep)" style="html=1;verticalAlign=bottom;endArrow=block;dashed=1;" edge="1" parent="1" source="oFazUV7s3_X-ZEu1s_ES-91" target="oFazUV7s3_X-ZEu1s_ES-31">
          <mxGeometry relative="1" as="geometry">
            <mxPoint x="169.50000000000017" y="-267.99999999999994" as="sourcePoint" />
            <mxPoint x="341.67" y="-267.99999999999994" as="targetPoint" />
          </mxGeometry>
        </mxCell>
        <mxCell id="oFazUV7s3_X-ZEu1s_ES-106" value="nodep-&amp;gt;iterateChildren(*this)" style="html=1;verticalAlign=bottom;endArrow=block;dashed=1;exitX=1;exitY=0.345;exitDx=0;exitDy=0;exitPerimeter=0;" edge="1" parent="1" source="oFazUV7s3_X-ZEu1s_ES-97" target="oFazUV7s3_X-ZEu1s_ES-33">
          <mxGeometry relative="1" as="geometry">
            <mxPoint x="353.92999999999995" y="-258" as="sourcePoint" />
            <mxPoint x="548" y="-258" as="targetPoint" />
          </mxGeometry>
        </mxCell>
        <mxCell id="oFazUV7s3_X-ZEu1s_ES-65" value="nodep-&amp;gt;accept(v)" style="html=1;verticalAlign=bottom;endArrow=block;dashed=1;exitX=0.895;exitY=0.861;exitDx=0;exitDy=0;exitPerimeter=0;" edge="1" parent="1" source="oFazUV7s3_X-ZEu1s_ES-63" target="oFazUV7s3_X-ZEu1s_ES-67">
          <mxGeometry relative="1" as="geometry">
            <mxPoint x="495" y="-334" as="sourcePoint" />
            <mxPoint x="726.5199999999998" y="-328.0999999999999" as="targetPoint" />
          </mxGeometry>
        </mxCell>
      </root>
    </mxGraphModel>
  </diagram>
</mxfile>
